<?xml version="1.0" encoding="UTF-8" standalone="no"?>
<!DOCTYPE svg PUBLIC "-//W3C//DTD SVG 1.1//EN"
 "http://www.w3.org/Graphics/SVG/1.1/DTD/svg11.dtd">
<!-- Generated by graphviz version 2.38.0 (20140413.2041)
 -->
<!-- Title: %3 Pages: 1 -->
<svg width="879pt" height="568pt"
 viewBox="0.00 0.00 879.50 567.57" xmlns="http://www.w3.org/2000/svg" xmlns:xlink="http://www.w3.org/1999/xlink">
<g id="graph0" class="graph" transform="scale(1 1) rotate(0) translate(4 563.567)">
<title>%3</title>
<polygon fill="white" stroke="none" points="-4,4 -4,-563.567 875.498,-563.567 875.498,4 -4,4"/>
<!-- 0 -->
<g id="node1" class="node"><title>0</title>
<ellipse fill="none" stroke="black" cx="56.5998" cy="-278.923" rx="56.6998" ry="56.6998"/>
<text text-anchor="middle" x="56.5998" y="-274.723" font-family="Times,serif" font-size="14.00">atct_8&lt;0.375</text>
</g>
<!-- 1 -->
<g id="node2" class="node"><title>1</title>
<ellipse fill="none" stroke="black" cx="300.072" cy="-342.923" rx="57.6688" ry="57.6688"/>
<text text-anchor="middle" x="300.072" y="-338.723" font-family="Times,serif" font-size="14.00">atcs_4&lt;0.375</text>
</g>
<!-- 0&#45;&gt;1 -->
<g id="edge1" class="edge"><title>0&#45;&gt;1</title>
<path fill="none" stroke="#0000ff" d="M111.49,-293.206C147.728,-302.81 195.696,-315.524 234.054,-325.69"/>
<polygon fill="#0000ff" stroke="#0000ff" points="233.529,-329.172 244.092,-328.351 235.322,-322.405 233.529,-329.172"/>
<text text-anchor="middle" x="165.813" y="-318.723" font-family="Times,serif" font-size="14.00">yes, missing</text>
</g>
<!-- 2 -->
<g id="node3" class="node"><title>2</title>
<ellipse fill="none" stroke="black" cx="300.072" cy="-185.923" rx="81.7898" ry="81.7898"/>
<text text-anchor="middle" x="300.072" y="-181.723" font-family="Times,serif" font-size="14.00">atcsgender_2&lt;0.125</text>
</g>
<!-- 0&#45;&gt;2 -->
<g id="edge2" class="edge"><title>0&#45;&gt;2</title>
<path fill="none" stroke="#ff0000" d="M109.698,-258.857C140.114,-247.143 179.231,-232.078 214.009,-218.683"/>
<polygon fill="#ff0000" stroke="#ff0000" points="215.619,-221.814 223.693,-214.954 213.103,-215.282 215.619,-221.814"/>
<text text-anchor="middle" x="165.813" y="-251.723" font-family="Times,serif" font-size="14.00">no</text>
</g>
<!-- 3 -->
<g id="node4" class="node"><title>3</title>
<ellipse fill="none" stroke="black" cx="568.589" cy="-477.923" rx="81.7898" ry="81.7898"/>
<text text-anchor="middle" x="568.589" y="-473.723" font-family="Times,serif" font-size="14.00">atcsgender_1&lt;0.125</text>
</g>
<!-- 1&#45;&gt;3 -->
<g id="edge3" class="edge"><title>1&#45;&gt;3</title>
<path fill="none" stroke="#0000ff" d="M351.829,-368.633C389.838,-387.885 442.609,-414.616 486.448,-436.822"/>
<polygon fill="#0000ff" stroke="#0000ff" points="484.871,-439.947 495.374,-441.343 488.034,-433.702 484.871,-439.947"/>
<text text-anchor="middle" x="434.33" y="-428.723" font-family="Times,serif" font-size="14.00">yes, missing</text>
</g>
<!-- 4 -->
<g id="node5" class="node"><title>4</title>
<ellipse fill="none" stroke="black" cx="568.589" cy="-330.923" rx="47.0465" ry="47.0465"/>
<text text-anchor="middle" x="568.589" y="-326.723" font-family="Times,serif" font-size="14.00">mtr_3&lt;0.5</text>
</g>
<!-- 1&#45;&gt;4 -->
<g id="edge4" class="edge"><title>1&#45;&gt;4</title>
<path fill="none" stroke="#ff0000" d="M357.92,-340.363C403.021,-338.332 465.761,-335.507 510.838,-333.478"/>
<polygon fill="#ff0000" stroke="#ff0000" points="511.201,-336.965 521.033,-333.019 510.886,-329.972 511.201,-336.965"/>
<text text-anchor="middle" x="434.33" y="-340.723" font-family="Times,serif" font-size="14.00">no</text>
</g>
<!-- 5 -->
<g id="node10" class="node"><title>5</title>
<ellipse fill="none" stroke="black" cx="568.589" cy="-207.923" rx="57.6688" ry="57.6688"/>
<text text-anchor="middle" x="568.589" y="-203.723" font-family="Times,serif" font-size="14.00">atcs_3&lt;0.625</text>
</g>
<!-- 2&#45;&gt;5 -->
<g id="edge9" class="edge"><title>2&#45;&gt;5</title>
<path fill="none" stroke="#0000ff" d="M381.759,-192.583C419.688,-195.714 464.383,-199.403 500.435,-202.379"/>
<polygon fill="#0000ff" stroke="#0000ff" points="500.589,-205.904 510.843,-203.238 501.165,-198.928 500.589,-205.904"/>
<text text-anchor="middle" x="434.33" y="-202.723" font-family="Times,serif" font-size="14.00">yes, missing</text>
</g>
<!-- 6 -->
<g id="node11" class="node"><title>6</title>
<ellipse fill="none" stroke="black" cx="568.589" cy="-65.9226" rx="65.8452" ry="65.8452"/>
<text text-anchor="middle" x="568.589" y="-61.7226" font-family="Times,serif" font-size="14.00">prepared&lt;0.125</text>
</g>
<!-- 2&#45;&gt;6 -->
<g id="edge10" class="edge"><title>2&#45;&gt;6</title>
<path fill="none" stroke="#ff0000" d="M374.958,-152.655C413.586,-135.263 460.581,-114.103 498.483,-97.0378"/>
<polygon fill="#ff0000" stroke="#ff0000" points="500.231,-100.089 507.912,-92.7922 497.357,-93.7064 500.231,-100.089"/>
<text text-anchor="middle" x="434.33" y="-143.723" font-family="Times,serif" font-size="14.00">no</text>
</g>
<!-- 7 -->
<g id="node6" class="node"><title>7</title>
<polygon fill="none" stroke="black" points="868.017,-495.923 758.943,-495.923 758.943,-459.923 868.017,-459.923 868.017,-495.923"/>
<text text-anchor="middle" x="813.48" y="-473.723" font-family="Times,serif" font-size="14.00">leaf=&#45;0.0157168</text>
</g>
<!-- 3&#45;&gt;7 -->
<g id="edge5" class="edge"><title>3&#45;&gt;7</title>
<path fill="none" stroke="#0000ff" d="M650.468,-477.923C682.317,-477.923 718.372,-477.923 748.37,-477.923"/>
<polygon fill="#0000ff" stroke="#0000ff" points="748.711,-481.423 758.711,-477.923 748.711,-474.423 748.711,-481.423"/>
<text text-anchor="middle" x="702.847" y="-480.723" font-family="Times,serif" font-size="14.00">yes, missing</text>
</g>
<!-- 8 -->
<g id="node7" class="node"><title>8</title>
<polygon fill="none" stroke="black" points="861.842,-441.923 765.117,-441.923 765.117,-405.923 861.842,-405.923 861.842,-441.923"/>
<text text-anchor="middle" x="813.48" y="-419.723" font-family="Times,serif" font-size="14.00">leaf=0.114854</text>
</g>
<!-- 3&#45;&gt;8 -->
<g id="edge6" class="edge"><title>3&#45;&gt;8</title>
<path fill="none" stroke="#ff0000" d="M648.449,-460.39C683.072,-452.693 722.982,-443.82 754.766,-436.754"/>
<polygon fill="#ff0000" stroke="#ff0000" points="755.781,-440.113 764.783,-434.527 754.262,-433.28 755.781,-440.113"/>
<text text-anchor="middle" x="702.847" y="-457.723" font-family="Times,serif" font-size="14.00">no</text>
</g>
<!-- 9 -->
<g id="node8" class="node"><title>9</title>
<polygon fill="none" stroke="black" points="862.356,-374.923 764.604,-374.923 764.604,-338.923 862.356,-338.923 862.356,-374.923"/>
<text text-anchor="middle" x="813.48" y="-352.723" font-family="Times,serif" font-size="14.00">leaf=0.125013</text>
</g>
<!-- 4&#45;&gt;9 -->
<g id="edge7" class="edge"><title>4&#45;&gt;9</title>
<path fill="none" stroke="#0000ff" d="M615.847,-335.874C655.265,-340.094 712.107,-346.178 754.548,-350.721"/>
<polygon fill="#0000ff" stroke="#0000ff" points="754.419,-354.227 764.735,-351.812 755.164,-347.267 754.419,-354.227"/>
<text text-anchor="middle" x="702.847" y="-350.723" font-family="Times,serif" font-size="14.00">yes, missing</text>
</g>
<!-- 10 -->
<g id="node9" class="node"><title>10</title>
<polygon fill="none" stroke="black" points="862.356,-320.923 764.604,-320.923 764.604,-284.923 862.356,-284.923 862.356,-320.923"/>
<text text-anchor="middle" x="813.48" y="-298.723" font-family="Times,serif" font-size="14.00">leaf=0.019274</text>
</g>
<!-- 4&#45;&gt;10 -->
<g id="edge8" class="edge"><title>4&#45;&gt;10</title>
<path fill="none" stroke="#ff0000" d="M615.847,-325.59C655.265,-321.046 712.107,-314.493 754.548,-309.601"/>
<polygon fill="#ff0000" stroke="#ff0000" points="755.201,-313.049 764.735,-308.427 754.4,-306.095 755.201,-313.049"/>
<text text-anchor="middle" x="702.847" y="-321.723" font-family="Times,serif" font-size="14.00">no</text>
</g>
<!-- 11 -->
<g id="node12" class="node"><title>11</title>
<polygon fill="none" stroke="black" points="871.517,-239.923 755.443,-239.923 755.443,-203.923 871.517,-203.923 871.517,-239.923"/>
<text text-anchor="middle" x="813.48" y="-217.723" font-family="Times,serif" font-size="14.00">leaf=&#45;0.00407157</text>
</g>
<!-- 5&#45;&gt;11 -->
<g id="edge11" class="edge"><title>5&#45;&gt;11</title>
<path fill="none" stroke="#0000ff" d="M626.23,-211.187C661.723,-213.233 707.659,-215.881 745.031,-218.035"/>
<polygon fill="#0000ff" stroke="#0000ff" points="745.143,-221.547 755.328,-218.628 745.546,-214.559 745.143,-221.547"/>
<text text-anchor="middle" x="702.847" y="-220.723" font-family="Times,serif" font-size="14.00">yes, missing</text>
</g>
<!-- 12 -->
<g id="node13" class="node"><title>12</title>
<polygon fill="none" stroke="black" points="864.517,-185.923 762.443,-185.923 762.443,-149.923 864.517,-149.923 864.517,-185.923"/>
<text text-anchor="middle" x="813.48" y="-163.723" font-family="Times,serif" font-size="14.00">leaf=&#45;0.102205</text>
</g>
<!-- 5&#45;&gt;12 -->
<g id="edge12" class="edge"><title>5&#45;&gt;12</title>
<path fill="none" stroke="#ff0000" d="M625.618,-198.696C663.429,-192.469 713.298,-184.256 752.007,-177.881"/>
<polygon fill="#ff0000" stroke="#ff0000" points="752.802,-181.298 762.101,-176.219 751.665,-174.391 752.802,-181.298"/>
<text text-anchor="middle" x="702.847" y="-194.723" font-family="Times,serif" font-size="14.00">no</text>
</g>
<!-- 13 -->
<g id="node14" class="node"><title>13</title>
<polygon fill="none" stroke="black" points="865.855,-110.923 761.104,-110.923 761.104,-74.9226 865.855,-74.9226 865.855,-110.923"/>
<text text-anchor="middle" x="813.48" y="-88.7226" font-family="Times,serif" font-size="14.00">leaf=0.0556769</text>
</g>
<!-- 6&#45;&gt;13 -->
<g id="edge13" class="edge"><title>6&#45;&gt;13</title>
<path fill="none" stroke="#0000ff" d="M634.36,-73.1226C670.43,-77.1322 715.098,-82.0975 750.679,-86.0527"/>
<polygon fill="#0000ff" stroke="#0000ff" points="750.607,-89.5662 760.933,-87.1926 751.381,-82.6091 750.607,-89.5662"/>
<text text-anchor="middle" x="702.847" y="-87.7226" font-family="Times,serif" font-size="14.00">yes, missing</text>
</g>
<!-- 14 -->
<g id="node15" class="node"><title>14</title>
<polygon fill="none" stroke="black" points="868.017,-56.9226 758.943,-56.9226 758.943,-20.9226 868.017,-20.9226 868.017,-56.9226"/>
<text text-anchor="middle" x="813.48" y="-34.7226" font-family="Times,serif" font-size="14.00">leaf=&#45;0.0406557</text>
</g>
<!-- 6&#45;&gt;14 -->
<g id="edge14" class="edge"><title>6&#45;&gt;14</title>
<path fill="none" stroke="#ff0000" d="M634.36,-58.7225C669.79,-54.7841 713.516,-49.9234 748.778,-46.0038"/>
<polygon fill="#ff0000" stroke="#ff0000" points="749.404,-49.4558 758.956,-44.8723 748.631,-42.4986 749.404,-49.4558"/>
<text text-anchor="middle" x="702.847" y="-57.7226" font-family="Times,serif" font-size="14.00">no</text>
</g>
</g>
</svg>
